<svg width="509" height="468" viewBox="0 0 509 468" fill="none" xmlns="http://www.w3.org/2000/svg">
<g clip-path="url(#clip0_232_27)">
<path d="M680.016 321.168C648.769 358.064 554.948 423.446 429.643 389.802C273.012 347.748 277.73 392.299 241.635 420.23C205.54 448.161 74.6535 539.803 87.2223 271.424C97.2774 56.7202 -18.8214 -36.8381 -78.1276 -56.7794" stroke="white" stroke-width="0.509025"/>
<path d="M691.091 295.586C659.844 332.482 566.023 397.864 440.718 364.22C284.086 322.165 288.804 366.717 252.709 394.648C216.614 422.579 85.7282 514.221 98.297 245.841C108.352 31.138 -7.74665 -62.4203 -67.0529 -82.3615" stroke="white" stroke-width="0.509025"/>
<path d="M702.165 270.004C670.918 306.9 577.097 372.282 451.792 338.638C295.161 296.583 299.879 341.135 263.784 369.066C227.688 396.997 96.8024 488.639 109.371 220.26C119.426 5.5561 3.32757 -88.0022 -55.9787 -107.943" stroke="white" stroke-width="0.509025"/>
<path d="M713.24 244.421C681.992 281.318 588.171 346.699 462.866 313.056C306.235 271.001 310.953 315.553 274.858 343.484C238.763 371.415 107.877 463.057 120.445 194.677C130.5 -20.0261 14.4018 -113.584 -44.9044 -133.526" stroke="white" stroke-width="0.509025"/>
<path d="M724.314 218.839C693.067 255.736 599.246 321.117 473.94 287.474C317.309 245.419 322.027 289.971 285.932 317.902C249.837 345.833 118.951 437.475 131.52 169.095C141.575 -45.6081 25.476 -139.166 -33.8302 -159.108" stroke="white" stroke-width="0.509025"/>
<path d="M735.388 193.257C704.141 230.154 610.32 295.535 485.015 261.892C328.383 219.837 333.101 264.388 297.006 292.32C260.911 320.251 130.025 411.893 142.594 143.513C152.649 -71.1902 36.5502 -164.749 -22.756 -184.69" stroke="white" stroke-width="0.509025"/>
<path d="M746.462 167.675C715.215 204.572 621.394 269.953 496.089 236.31C339.457 194.255 344.176 238.807 308.08 266.738C271.985 294.669 141.099 386.311 153.668 117.931C163.723 -96.7721 47.6244 -190.33 -11.6818 -210.272" stroke="white" stroke-width="0.509025"/>
<path d="M757.536 142.093C726.289 178.989 632.468 244.371 507.163 210.728C350.531 168.673 355.249 213.224 319.154 241.155C283.059 269.087 152.173 360.728 164.742 92.3491C174.797 -122.354 58.6982 -215.913 -0.608057 -235.854" stroke="white" stroke-width="0.509025"/>
<path d="M768.61 116.511C737.363 153.408 643.542 218.789 518.237 185.146C361.605 143.091 366.324 187.643 330.228 215.574C294.133 243.505 163.247 335.147 175.816 66.7672C185.871 -147.936 69.7724 -241.495 10.4662 -261.436" stroke="white" stroke-width="0.509025"/>
<path d="M779.685 90.9288C748.438 127.825 654.617 193.207 529.312 159.563C372.68 117.509 377.398 162.06 341.303 189.991C305.208 217.922 174.322 309.564 186.891 41.1848C196.946 -173.519 80.8471 -267.077 21.5409 -287.018" stroke="white" stroke-width="0.509025"/>
<path d="M790.759 65.3471C759.512 102.243 665.691 167.625 540.386 133.981C383.754 91.927 388.472 136.478 352.377 164.409C316.282 192.341 185.396 283.982 197.965 15.6031C208.02 -199.1 91.9213 -292.659 32.6151 -312.6" stroke="white" stroke-width="0.509025"/>
</g>
<defs>
<clipPath id="clip0_232_27">
<rect width="509" height="468" fill="white"/>
</clipPath>
</defs>
</svg>
